<?xml version="1.0" encoding="utf-8"?>
<!-- Generator: Adobe Illustrator 16.0.0, SVG Export Plug-In . SVG Version: 6.00 Build 0)  -->
<!DOCTYPE svg PUBLIC "-//W3C//DTD SVG 1.1//EN" "http://www.w3.org/Graphics/SVG/1.1/DTD/svg11.dtd">
<svg version="1.1" id="Layer_1" xmlns="http://www.w3.org/2000/svg" xmlns:xlink="http://www.w3.org/1999/xlink" x="0px" y="0px"
	 width="155.814px" height="19.432px" viewBox="0 0 155.814 19.432" enable-background="new 0 0 155.814 19.432"
	 xml:space="preserve">
<g>
	<path fill="#252E27" d="M0,0.072h7.629c4.39,0,7.485,1.438,7.485,6.333c0,4.534-2.735,6.549-7.341,6.549H4.534v6.405H0V0V0.072z
		 M4.534,8.853c0,0,1.943,0,2.447,0c0.576,0,3.311,0.144,3.311-2.375c0-2.592-2.159-2.447-3.886-2.447c-1.727,0-1.871,0-1.871,0
		V8.853z"/>
	<polygon fill="#252E27" points="22.095,4.318 22.095,7.557 29.939,7.557 29.939,11.803 22.095,11.803 22.095,15.113 30.227,15.113 
		30.227,19.432 17.561,19.432 17.561,0.072 30.227,0.072 30.227,4.318 	"/>
	<path fill="#252E27" d="M50.667,19.432h-5.686l-5.542-7.413h-0.791h-0.072v7.413h-4.534V0.072h8.492
		c3.454,0,6.118,1.799,6.118,5.973c0,3.095-1.871,5.038-4.391,5.542l6.333,7.845H50.667z M38.648,8.708h2.158
		c1.512,0,3.167-0.288,3.167-2.375s-1.655-2.375-3.167-2.375h-2.158V8.78V8.708z"/>
	<polygon fill="#252E27" points="60.31,19.432 55.777,19.432 55.777,4.318 50.451,4.318 50.451,0.072 65.636,0.072 65.636,4.318 
		60.31,4.318 	"/>
	<path fill="#252E27" d="M70.242,16.049l-1.223,3.383h-4.822l6.766-19.359h4.965l6.621,19.359h-4.894l-1.151-3.383H70.242z
		 M73.409,6.045h-0.071l-1.872,6.189h3.814L73.409,6.045z"/>
	<polygon fill="#252E27" points="86.939,0.072 91.473,0.072 95,10.436 98.814,0.072 103.348,0.072 106.011,19.432 101.405,19.432 
		100.181,8.276 100.109,8.276 95.863,19.432 94.064,19.432 90.034,8.276 89.961,8.276 88.523,19.432 83.988,19.432 	"/>
	<polygon fill="#252E27" points="108.961,19.432 113.496,19.432 113.496,0.072 108.961,0.072 	"/>
	<polygon fill="#252E27" points="117.526,0.072 122.132,0.072 130.48,11.875 130.552,11.875 130.552,0.072 135.086,0.072 
		135.086,19.432 130.552,19.432 122.132,7.557 122.132,7.557 122.132,19.432 117.526,19.432 	"/>
	<path fill="#252E27" d="M143.507,16.049l-1.225,3.383h-4.821l6.765-19.359h4.967l6.621,19.287l0,0h-4.895l-1.151-3.383h-6.261
		V16.049z M146.673,6.045h-0.072l-1.871,6.189h3.814L146.673,6.045z"/>
</g>
</svg>
