<?xml version="1.0" encoding="utf-8"?>
<!-- Generator: Adobe Illustrator 16.0.0, SVG Export Plug-In . SVG Version: 6.00 Build 0)  -->
<!DOCTYPE svg PUBLIC "-//W3C//DTD SVG 1.1//EN" "http://www.w3.org/Graphics/SVG/1.1/DTD/svg11.dtd">
<svg version="1.1" id="Layer_1" xmlns="http://www.w3.org/2000/svg" xmlns:xlink="http://www.w3.org/1999/xlink" x="0px" y="0px"
	 width="74.776px" height="57px" viewBox="0 0 74.776 57" enable-background="new 0 0 74.776 57" xml:space="preserve">
<g>
	<path fill="#D1202C" d="M64.557,3.526C63.261,1.584,61.174,0.288,58.727,0h-19.36l10.22,15.689
		c1.439,2.159,3.886,3.599,6.693,3.599h18.496L64.557,3.526z"/>
	<path fill="#9BAC3A" d="M49.587,27.708c1.439-2.159,3.886-3.598,6.693-3.598h18.496L64.557,39.871
		c-1.439,2.159-3.887,3.599-6.693,3.599H39.367L49.587,27.708z"/>
	<path fill="#2F60AD" d="M41.598,28.141c1.008-1.512,2.303-2.879,3.743-4.03H25.693c-2.807,0-5.253,1.438-6.693,3.598L0,57h18.496
		c2.807,0,5.254-1.439,6.693-3.599L41.598,28.141z"/>
</g>
</svg>
